<?xml version="1.0" standalone="no"?><!DOCTYPE svg PUBLIC "-//W3C//DTD SVG 1.1//EN" "http://www.w3.org/Graphics/SVG/1.1/DTD/svg11.dtd"><svg t="1601888760713" class="icon" viewBox="0 0 1024 1024" version="1.1" xmlns="http://www.w3.org/2000/svg" p-id="61822" xmlns:xlink="http://www.w3.org/1999/xlink" width="48" height="48"><defs><style type="text/css"></style></defs><path d="M840.16 959.5H183.84c-37.29 0-69.61-29.83-69.61-69.61V748.18c0-19.89 7.46-39.78 22.37-52.21l191.43-169.05c-39.78-47.24-64.64-104.42-72.1-164.08-4.97-42.26-7.46-149.17 59.67-223.75C362.83 89.36 427.47 64.5 512 64.5c89.5 0 156.62 27.35 203.86 79.55 69.61 79.55 62.15 191.43 57.18 223.75-7.46 62.15-34.81 119.33-74.58 166.57L887.4 700.94c14.92 12.43 22.37 32.32 22.37 52.21v141.71c0 34.8-32.31 64.64-69.61 64.64zM512 134.11c-64.64 0-111.87 17.4-144.19 52.21-49.72 54.69-47.24 139.22-42.26 171.54 7.46 57.18 34.81 106.9 77.07 146.68 14.92 12.43 17.4 34.81 4.97 49.72 0 2.49-2.49 2.49-4.97 4.97L183.84 753.15v141.71h656.33V753.15L621.39 561.72c-7.46-7.46-12.43-17.4-12.43-27.35s4.97-19.89 14.92-27.35c44.75-37.29 72.1-91.99 79.55-149.17 2.49-17.4 12.43-109.39-39.78-169.05-32.32-37.28-84.53-54.69-151.65-54.69z" p-id="61823" fill="#515151"></path></svg>