<?xml version="1.0" standalone="no"?><!DOCTYPE svg PUBLIC "-//W3C//DTD SVG 1.1//EN" "http://www.w3.org/Graphics/SVG/1.1/DTD/svg11.dtd"><svg t="1601879849778" class="icon" viewBox="0 0 1024 1024" version="1.1" xmlns="http://www.w3.org/2000/svg" p-id="29685" xmlns:xlink="http://www.w3.org/1999/xlink" width="48" height="48"><defs><style type="text/css"></style></defs><path d="M703.2 221.2c45.8 0 89.9 20.8 131.8 62.8 40.7 39.2 63.2 92.6 63.2 150.5 0 56.2-22.1 108.5-62.3 147.6-196 171.8-286 250.6-322.1 281.3-34.4-29.9-120.5-105.9-319.6-281.2-40.9-39.8-64.3-93.5-64.3-147.6 0-57.1 22.1-109.5 64-151.3 41.1-41.1 85.2-62 131-62 46.8 0 97.8 22.2 151.8 66.1l37.4 30.4 37.4-30.4C605.3 243.5 656.4 221.2 703.2 221.2M703.2 162c-61 0-124.1 26.4-189.1 79.3C448.9 188.4 385.9 162 324.9 162c-61 0-120 26.4-172.9 79.3-52.9 52.9-81.4 120-81.4 193.2 0 71.2 30.5 140.3 83.4 191.2 341.7 301 341.7 301 345.7 303 4.1 2 10.2 4.1 14.2 4.1 4.1 0 6.1 0 8.1-2 8.1-2 8.1-2 353.9-305.1 52.9-50.8 81.4-120 81.4-191.2 0-73.2-28.5-142.4-81.4-193.2C823.1 188.4 764.2 162 703.2 162L703.2 162z" p-id="29686" fill="#707070"></path></svg>