<?xml version="1.0" standalone="no"?><!DOCTYPE svg PUBLIC "-//W3C//DTD SVG 1.1//EN" "http://www.w3.org/Graphics/SVG/1.1/DTD/svg11.dtd"><svg t="1601888711856" class="icon" viewBox="0 0 1024 1024" version="1.1" xmlns="http://www.w3.org/2000/svg" p-id="61130" xmlns:xlink="http://www.w3.org/1999/xlink" width="48" height="48"><defs><style type="text/css"></style></defs><path d="M655.458 346.665l13.06-41.473h72.3l-112.71 332.05c-2.898 12.47-4.777 20.182-5.31 22.94 1.115 1.09 1.672 3.109 1.672 6.057 1.624 15.772 10.808 24.588 27.347 26.42 17.605-0.906 37.416-9.175 59.241-24.949 22.063-15.797 38.394-33.774 49.018-54.152 35.813-66.99 53.766-124.26 53.766-171.813 0-35.791-7.864-69.54-23.474-101.296-15.773-31.756-37.114-59.29-64.25-83.16-27.141-23.681-57.624-42.4-91.396-55.797-33.774-13.395-68.427-20.575-103.71-21.468-44.93 0-86.637 8.803-125.557 26.236-38.715 17.627-72.653 42.053-101.647 73.228-29.04 31.223-51.61 67.176-67.755 107.769-16.168 40.547-24.402 83.308-25.169 128.274 0.975 0 1.509 0.21 1.649 0.37 0.208 0.198 0.393 0.385 0.393 0.547 0.557 58.013 14.498 112.327 41.846 162.616 27.325 50.31 64.6 90.498 111.783 120.398 47.156 29.935 99.138 44.803 155.482 44.803 59.242-0.928 111.386-12.282 156.018-34.515 44.58-22.014 82.762-56.715 114.496-103.873h63.51c-24.403 42.762-53.027 78.195-85.873 106.458-32.845 28.079-69.911 49.003-111.246 62.595-41.291 13.58-86.986 20.376-136.904 20.376-67.733-0.926-129.991-19.285-186.843-54.51-56.9-35.443-101.878-82.612-134.724-141.716-32.683-58.732-49.013-122.415-49.013-190.323 0-50.128 9.535-98.2 28.624-144.28 19.067-46.08 45.882-87.007 80.583-122.8 34.678-35.768 75.063-63.51 120.943-83.517 45.883-19.994 95.245-30.097 147.575-30.097 44.235 1.669 87.007 10.647 128.665 26.804 41.686 16.144 78.752 38.55 111.226 66.815 32.473 28.265 58.178 61.853 76.708 100.404 18.742 38.737 27.93 80.558 27.93 125.723 0 18.905-1.647 36.52-4.964 53.06-3.269 16.32-7.537 31.374-12.851 44.967-5.311 13.58-12.086 28.077-20.39 43.677a3640.118 3640.118 0 0 1-20.922 38.91c-9.883 19.092-24.588 37.626-44.028 55.787-19.436 18.175-40.962 33.042-64.623 44.804-23.658 11.737-46.414 17.976-68.473 18.523-38.368-3.492-66.806-21.655-85.316-54.697-32.661 31.014-71.211 47.553-115.469 49.57-24.774-2.204-47.18-7.167-66.806-15.055-50.821-20.935-77.288-66.443-79.283-136.553 1.832-51.763 13.94-100.603 36.138-146.3 12.667-28.623 30.132-55.622 52.516-80.953 22.386-25.318 47.156-45.51 74.692-60.925 27.533-15.413 54.347-22.94 80.952-22.94 15.587 0 31.014 2.947 45.86 8.617 15.053 5.706 28.879 13.779 41.682 23.845 12.85 10.129 23.894 21.669 33.03 34.52m-77.823 5.161c-11.341-8.27-25.12-12.305-41.264-12.305-19.485 0-38.946 7.526-58.407 22.395-19.437 14.87-36.323 32.474-51.01 52.667-14.52 20.203-25.167 38.354-31.755 54.533-16.377 37.972-25.515 75.248-27.371 111.783 2.227 47.528 20.041 77.614 52.887 90.847 4.176 1.287 13.777 3.665 28.994 7.155 50.105-1.471 94.316-46.055 133.076-133.991 20.554-51.564 30.828-90.662 30.828-117.268 0.187-33.253-11.738-58.385-35.978-75.816z" p-id="61131" fill="#515151"></path></svg>